<?xml version="1.0"?><svg width="640" height="480" xmlns="http://www.w3.org/2000/svg" xmlns:xlink="http://www.w3.org/1999/xlink">
 <defs>
  <linearGradient id="linearGradient2690">
   <stop stop-color="#000000" offset="0" id="stop2692"/>
   <stop stop-color="#ffffff" offset="1" id="stop2694"/>
  </linearGradient>
  <linearGradient id="linearGradient2280">
   <stop stop-color="#e5a146" offset="0" id="stop2282"/>
   <stop stop-color="#edb62d" offset="0.5" id="stop2290"/>
   <stop stop-color="#c18241" offset="1" id="stop2284"/>
  </linearGradient>
  <radialGradient xlink:href="#linearGradient2280" r="27.782553" id="radialGradient2288" gradientUnits="userSpaceOnUse" gradientTransform="scale(0.891739,1.121404)" fy="518.9364" fx="251.08539" cy="518.93634" cx="251.39725"/>
  <linearGradient y2="288.27686" y1="305.40515" xlink:href="#linearGradient2690" x2="520.8714" x1="432.06833" spreadMethod="pad" id="linearGradient2696" gradientUnits="userSpaceOnUse" gradientTransform="scale(0.848493,1.178560)"/>
  <linearGradient y2="288.70337" y1="305.83167" xlink:href="#linearGradient2690" x2="523.53735" x1="434.73428" spreadMethod="pad" id="linearGradient2698" gradientUnits="userSpaceOnUse" gradientTransform="scale(0.848493,1.178560)"/>
  <linearGradient y2="288.27686" y1="305.40515" xlink:href="#linearGradient2690" x2="520.8714" x1="432.06833" spreadMethod="pad" id="linearGradient2700" gradientUnits="userSpaceOnUse" gradientTransform="scale(0.848493,1.178560)"/>
  <linearGradient y2="288.27686" y1="305.40515" xlink:href="#linearGradient2690" x2="520.8714" x1="432.06833" spreadMethod="pad" id="linearGradient2702" gradientUnits="userSpaceOnUse" gradientTransform="scale(0.848493,1.178560)"/>
  <linearGradient y2="288.0636" y1="305.19189" xlink:href="#linearGradient2690" x2="521.76007" x1="432.95697" spreadMethod="pad" id="linearGradient2704" gradientUnits="userSpaceOnUse" gradientTransform="scale(0.848493,1.178560)"/>
  <linearGradient y2="288.27686" y1="305.40515" xlink:href="#linearGradient2690" x2="520.8714" x1="432.06833" spreadMethod="pad" id="linearGradient2706" gradientUnits="userSpaceOnUse" gradientTransform="scale(0.848493,1.178560)"/>
  <linearGradient y2="299.10999" y1="334.65601" xlink:href="#linearGradient2690" x2="458.00449" x1="430.10339" id="linearGradient2731" gradientUnits="userSpaceOnUse" gradientTransform="scale(0.912844,1.095478)"/>
  <linearGradient y2="297.50397" y1="333.04999" xlink:href="#linearGradient2690" x2="476.17654" x1="448.27545" id="linearGradient2733" gradientUnits="userSpaceOnUse" gradientTransform="scale(0.912844,1.095478)"/>
  <linearGradient y2="310.58154" y1="346.12756" xlink:href="#linearGradient2690" x2="474.24921" x1="446.34811" id="linearGradient2735" gradientUnits="userSpaceOnUse" gradientTransform="scale(0.912844,1.095478)"/>
  <linearGradient y2="311.49927" y1="347.04529" xlink:href="#linearGradient2690" x2="457.45383" x1="429.55273" id="linearGradient2737" gradientUnits="userSpaceOnUse" gradientTransform="scale(0.912844,1.095478)"/>
  <linearGradient y2="324.11801" y1="359.66403" xlink:href="#linearGradient2690" x2="455.25116" x1="427.35007" id="linearGradient2739" gradientUnits="userSpaceOnUse" gradientTransform="scale(0.912844,1.095478)"/>
  <linearGradient y2="321.82367" y1="357.36969" xlink:href="#linearGradient2690" x2="473.42319" x1="445.52209" id="linearGradient2741" gradientUnits="userSpaceOnUse" gradientTransform="scale(0.912844,1.095478)"/>
  <linearGradient y2="288.27686" y1="305.40515" xlink:href="#linearGradient2690" x2="520.8714" x1="432.06833" spreadMethod="pad" id="linearGradient2757" gradientUnits="userSpaceOnUse" gradientTransform="scale(0.848493,1.178560)"/>
  <linearGradient y2="288.0636" y1="305.19189" xlink:href="#linearGradient2690" x2="521.76007" x1="432.95697" spreadMethod="pad" id="linearGradient2759" gradientUnits="userSpaceOnUse" gradientTransform="scale(0.848493,1.178560)"/>
  <linearGradient y2="288.27686" y1="305.40515" xlink:href="#linearGradient2690" x2="520.8714" x1="432.06833" spreadMethod="pad" id="linearGradient2761" gradientUnits="userSpaceOnUse" gradientTransform="scale(0.848493,1.178560)"/>
  <linearGradient y2="288.27686" y1="305.40515" xlink:href="#linearGradient2690" x2="520.8714" x1="432.06833" spreadMethod="pad" id="linearGradient2763" gradientUnits="userSpaceOnUse" gradientTransform="scale(0.848493,1.178560)"/>
  <linearGradient y2="288.70337" y1="305.83167" xlink:href="#linearGradient2690" x2="523.53735" x1="434.73428" spreadMethod="pad" id="linearGradient2765" gradientUnits="userSpaceOnUse" gradientTransform="scale(0.848493,1.178560)"/>
  <linearGradient y2="288.27686" y1="305.40515" xlink:href="#linearGradient2690" x2="520.8714" x1="432.06833" spreadMethod="pad" id="linearGradient2767" gradientUnits="userSpaceOnUse" gradientTransform="scale(0.848493,1.178560)"/>
  <linearGradient y2="299.10999" y1="334.65601" xlink:href="#linearGradient2690" x2="458.00449" x1="430.10339" id="linearGradient2769" gradientUnits="userSpaceOnUse" gradientTransform="scale(0.912844,1.095478)"/>
  <linearGradient y2="311.49927" y1="347.04529" xlink:href="#linearGradient2690" x2="457.45383" x1="429.55273" id="linearGradient2771" gradientUnits="userSpaceOnUse" gradientTransform="scale(0.912844,1.095478)"/>
  <linearGradient y2="324.11801" y1="359.66403" xlink:href="#linearGradient2690" x2="455.25116" x1="427.35007" id="linearGradient2773" gradientUnits="userSpaceOnUse" gradientTransform="scale(0.912844,1.095478)"/>
  <linearGradient y2="297.50397" y1="333.04999" xlink:href="#linearGradient2690" x2="476.17654" x1="448.27545" id="linearGradient2775" gradientUnits="userSpaceOnUse" gradientTransform="scale(0.912844,1.095478)"/>
  <linearGradient y2="310.58154" y1="346.12756" xlink:href="#linearGradient2690" x2="474.24921" x1="446.34811" id="linearGradient2777" gradientUnits="userSpaceOnUse" gradientTransform="scale(0.912844,1.095478)"/>
  <linearGradient y2="321.82367" y1="357.36969" xlink:href="#linearGradient2690" x2="473.42319" x1="445.52209" id="linearGradient2779" gradientUnits="userSpaceOnUse" gradientTransform="scale(0.912844,1.095478)"/>
  <linearGradient y2="288.27686" y1="305.40515" xlink:href="#linearGradient2690" x2="520.8714" x1="432.06833" spreadMethod="pad" id="linearGradient2793" gradientUnits="userSpaceOnUse" gradientTransform="scale(0.848493,1.178560)"/>
  <linearGradient y2="288.70337" y1="305.83167" xlink:href="#linearGradient2690" x2="523.53735" x1="434.73428" spreadMethod="pad" id="linearGradient2795" gradientUnits="userSpaceOnUse" gradientTransform="scale(0.848493,1.178560)"/>
  <radialGradient xlink:href="#linearGradient2280" r="27.782553" id="radialGradient2846" gradientUnits="userSpaceOnUse" gradientTransform="scale(0.891739,1.121404)" fy="518.9364" fx="251.08539" cy="518.93634" cx="251.39725"/>
  <linearGradient y2="288.27686" y1="305.40515" xlink:href="#linearGradient2690" x2="520.8714" x1="432.06833" spreadMethod="pad" id="linearGradient2848" gradientUnits="userSpaceOnUse" gradientTransform="scale(0.848493,1.178560)"/>
  <linearGradient y2="288.0636" y1="305.19189" xlink:href="#linearGradient2690" x2="521.76007" x1="432.95697" spreadMethod="pad" id="linearGradient2850" gradientUnits="userSpaceOnUse" gradientTransform="scale(0.848493,1.178560)"/>
  <linearGradient y2="288.27686" y1="305.40515" xlink:href="#linearGradient2690" x2="520.8714" x1="432.06833" spreadMethod="pad" id="linearGradient2852" gradientUnits="userSpaceOnUse" gradientTransform="scale(0.848493,1.178560)"/>
  <linearGradient y2="288.27686" y1="305.40515" xlink:href="#linearGradient2690" x2="520.8714" x1="432.06833" spreadMethod="pad" id="linearGradient2854" gradientUnits="userSpaceOnUse" gradientTransform="scale(0.848493,1.178560)"/>
  <linearGradient y2="288.70337" y1="305.83167" xlink:href="#linearGradient2690" x2="523.53735" x1="434.73428" spreadMethod="pad" id="linearGradient2856" gradientUnits="userSpaceOnUse" gradientTransform="scale(0.848493,1.178560)"/>
  <linearGradient y2="288.27686" y1="305.40515" xlink:href="#linearGradient2690" x2="520.8714" x1="432.06833" spreadMethod="pad" id="linearGradient2858" gradientUnits="userSpaceOnUse" gradientTransform="scale(0.848493,1.178560)"/>
  <linearGradient y2="299.10999" y1="334.65601" xlink:href="#linearGradient2690" x2="458.00449" x1="430.10339" id="linearGradient2860" gradientUnits="userSpaceOnUse" gradientTransform="scale(0.912844,1.095478)"/>
  <linearGradient y2="311.49927" y1="347.04529" xlink:href="#linearGradient2690" x2="457.45383" x1="429.55273" id="linearGradient2862" gradientUnits="userSpaceOnUse" gradientTransform="scale(0.912844,1.095478)"/>
  <linearGradient y2="324.11801" y1="359.66403" xlink:href="#linearGradient2690" x2="455.25116" x1="427.35007" id="linearGradient2864" gradientUnits="userSpaceOnUse" gradientTransform="scale(0.912844,1.095478)"/>
  <linearGradient y2="297.50397" y1="333.04999" xlink:href="#linearGradient2690" x2="476.17654" x1="448.27545" id="linearGradient2866" gradientUnits="userSpaceOnUse" gradientTransform="scale(0.912844,1.095478)"/>
  <linearGradient y2="310.58154" y1="346.12756" xlink:href="#linearGradient2690" x2="474.24921" x1="446.34811" id="linearGradient2868" gradientUnits="userSpaceOnUse" gradientTransform="scale(0.912844,1.095478)"/>
  <linearGradient y2="321.82367" y1="357.36969" xlink:href="#linearGradient2690" x2="473.42319" x1="445.52209" id="linearGradient2870" gradientUnits="userSpaceOnUse" gradientTransform="scale(0.912844,1.095478)"/>
 </defs>
 <g>
  <title>Layer 1</title>
  <g transform="rotate(90.0165023803711 316.167236328125,235.84352111816403) " id="layer1">
   <path fill="#000000" fill-rule="evenodd" stroke="#000000" stroke-width="2.5655570px" id="path1516" d="m320.635559,15.780327l2.978912,211.420204l-5.957794,1.329651l2.978882,-212.749855z"/>
   <path fill="#f6c065" fill-rule="evenodd" stroke="#000000" stroke-width="2.5655570px" id="path1496" d="m299.783356,539.677002c0,0 -37.236115,-3.989136 -55.109406,-10.637573c-17.873337,-6.648438 -50.641083,-26.59375 -59.577774,-55.846832c-8.936646,-29.253113 -1.489426,-49.198395 5.957794,-66.484314c7.447205,-17.28595 23.831085,-37.231262 25.320541,-58.506256c1.489456,-21.274994 -7.447235,-53.187439 -4.468338,-70.473419c2.978882,-17.285919 11.915558,-25.264038 23.831085,-30.582733c11.915573,-5.318817 47.662216,-6.648468 47.662216,-6.648468l32.767761,-13.296875c0,0 4.468323,-1.329651 11.915558,1.329651c7.447205,2.659393 11.915527,3.989105 13.404999,9.307861c1.489441,5.318756 1.489441,18.615631 2.978882,25.264038c1.48941,6.648407 10.426086,14.626526 10.426086,14.626526c0,0 22.341675,-11.967163 25.320557,-11.967163c2.978882,0 26.809967,2.659393 26.809967,2.659393c0,0 8.936676,0 11.915558,7.978119c2.978882,7.978119 4.468353,15.956238 2.978882,26.593689c-1.48941,10.637512 -7.447205,33.242218 -7.447205,43.879669c0,10.637543 26.809998,59.835968 31.27832,71.80307c4.468323,11.967224 10.426086,38.560974 8.936676,46.539124c-1.489441,7.978088 -2.978912,15.956238 -16.383911,31.912415c-13.404968,15.956207 -43.193848,38.560944 -43.193848,38.560944c0,0 -14.89444,7.978149 -37.236084,9.307861c-22.341675,1.329712 -58.088318,-5.318726 -58.088318,-5.318726z"/>
   <path fill="none" fill-rule="nonzero" stroke="#000000" stroke-width="1.55" stroke-linecap="round" stroke-linejoin="round" stroke-miterlimit="4" stroke-dashoffset="0" stroke-opacity="0.124324" id="path2292" d="m338.073792,330.915894c0,19.724548 -16.476227,35.714508 -36.800659,35.714508c-20.324432,0 -36.800629,-15.98996 -36.800629,-35.714508c0,-19.724548 16.476196,-35.714508 36.800629,-35.714508c20.324432,0 36.800659,15.98996 36.800659,35.714508z"/>
   <path fill="#000000" fill-rule="evenodd" stroke="#000000" stroke-width="2.5655570px" id="path1498" d="m252.121155,408.037933l98.303314,10.637451l0,15.956268c0,0 -17.873352,-1.329681 -32.767792,1.329712c-14.89444,2.659363 -17.873322,5.318756 -17.873322,5.318756c0,0 -14.89444,-10.637512 -28.299438,-13.296875c-13.404968,-2.659393 -20.852188,-2.659393 -20.852188,-2.659393l1.489426,-17.285919z"/>
   <path fill="url(#radialGradient2846)" fill-rule="nonzero" stroke="#000000" stroke-width="1.55" stroke-linecap="round" stroke-linejoin="round" stroke-miterlimit="4" stroke-dashoffset="0" id="path1500" d="m332.37796,330.915833c0,16.904816 -13.926147,30.608856 -31.10495,30.608856c-17.178833,0 -31.10498,-13.704041 -31.10498,-30.608856c0,-16.904816 13.926147,-30.608856 31.10498,-30.608856c17.178802,0 31.10495,13.704041 31.10495,30.608856z"/>
   <path fill="none" fill-opacity="0.75" fill-rule="evenodd" stroke="#000000" stroke-width="2.5655570px" id="path1506" d="m319.146118,249.805206c0,0 1.489441,9.307831 4.468353,15.956238c2.978882,6.648407 4.468323,11.967163 13.404968,13.296875c8.936646,1.329712 13.405029,1.329712 16.383881,0c2.978912,-1.329712 8.936676,-5.318756 8.936676,-5.318756"/>
   <path fill="none" fill-opacity="0.75" fill-rule="evenodd" stroke="#000000" stroke-width="2.5655570px" id="path1508" d="m378.723877,267.091156c0,0 11.915527,-1.329712 16.383881,5.318695c4.468323,6.648468 7.447235,9.307861 4.468323,25.264099c-2.978882,15.956207 -8.936676,46.539032 -7.447205,57.176544c1.489441,10.637512 13.404968,35.901489 17.873322,47.868713c4.468323,11.967163 19.362762,45.20932 19.362762,65.154663c0,19.945251 -4.468323,35.90152 -8.936646,42.549957c-4.468353,6.648438 -29.78891,26.593628 -29.78891,26.593628"/>
   <path fill="#000000" fill-rule="evenodd" stroke="#000000" stroke-width="2.5655570px" id="path1510" d="m340.742371,298.33902c-2.606506,0.332397 -5.215302,1.993683 -8.194214,3.323395c-2.49826,1.115143 -2.469879,1.996704 -1.283691,3.151489c0.808441,0.598083 1.579254,1.246063 2.332062,1.910034c1.904358,1.429352 4.231995,3.179749 6.29007,5.997406c0.43808,1.285034 0.724518,2.144165 1.069733,3.151489c2.805359,5.016022 4.535736,10.71701 4.535736,16.865326c0,12.858948 -7.018555,24.046509 -17.415436,30.082611c-0.025726,0.022919 -0.038574,0.034485 -0.064178,0.057312c-7.390808,6.579895 -10.368408,6.627502 -11.852753,17.22821c-1.489441,10.637512 -1.481232,15.95871 1.49765,21.277466c2.978882,5.318756 11.916931,7.983795 11.916931,7.983795c0,0 7.435394,1.329773 13.393158,0c5.957764,-1.329651 16.403046,-0.008911 26.829163,5.309845c10.426056,5.318726 11.911926,-5.308228 14.890808,-11.956635c2.978851,-6.648468 2.975677,-10.635101 -4.471558,-41.217926c-7.447205,-30.582794 -25.321442,-50.525269 -31.279236,-58.503418c-2.978882,-3.989075 -5.587738,-4.992828 -8.194244,-4.6604z"/>
   <path fill="none" fill-opacity="0.75" fill-rule="evenodd" stroke="#ffffff" stroke-width="5.131114" stroke-miterlimit="4" id="path1512" d="m274.46283,418.675385l46.172729,1.329773"/>
   <path fill="#3f1300" fill-rule="evenodd" stroke="#000000" stroke-width="2.5655570px" id="path1514" d="m283.399475,296.344238l11.915527,-280.563911l25.320557,-1.329681l-1.489441,284.552956l-35.746643,-2.659363z"/>
   <path fill="#5c1e00" fill-rule="evenodd" stroke="#000000" stroke-width="2.5655570px" id="path1518" d="m295.315002,13.120956l-7.447174,-13.296879c0,0 5.957733,-22.604664 7.447174,-35.901539c1.489471,-13.296848 1.489471,-31.912476 1.489471,-31.912476c0,0 10.426117,-3.989067 20.852203,-5.318748c10.426117,-1.329689 26.809998,1.329681 26.809998,1.329681c0,0 -5.957764,23.934353 -5.957764,38.560917c0,14.626564 -1.489471,34.571854 -1.489471,34.571854c0,0 -5.957764,2.659374 -8.936646,6.648441c-2.978882,3.989059 -5.957794,6.648438 -5.957794,6.648438l-26.809998,-1.329689z"/>
   <path fill="none" fill-rule="nonzero" stroke="#000000" stroke-width="1.55" stroke-linecap="round" stroke-linejoin="round" stroke-miterlimit="4" stroke-dashoffset="0" stroke-opacity="0.124324" id="path2294" d="m343.771301,330.916046c0,22.543518 -19.027039,40.818634 -42.498016,40.818634c-23.471069,0 -42.498047,-18.275116 -42.498047,-40.818634c0,-22.543549 19.026978,-40.818665 42.498047,-40.818665c23.470978,0 42.498016,18.275116 42.498016,40.818665z"/>
   <g id="g2616">
    <path fill="none" fill-opacity="0.75" fill-rule="evenodd" stroke="#ffffff" stroke-width="1.0000000px" stroke-opacity="0.794595" id="path2412" d="m319.582825,15.696564l-26.08252,0.261955l26.08252,-0.261955z"/>
    <path fill="none" fill-opacity="0.75" fill-rule="evenodd" stroke="#ffffff" stroke-width="1.0000000px" stroke-opacity="0.794595" id="path2568" d="m319.417328,38.27813l-27.17981,1.378181l27.17981,-1.378181z"/>
    <path fill="none" fill-opacity="0.75" fill-rule="evenodd" stroke="#ffffff" stroke-width="1.0000000px" stroke-opacity="0.794595" id="path2566" d="m318.70462,59.114677l-26.905457,0.707298l26.905457,-0.707298z"/>
    <path fill="none" fill-opacity="0.75" fill-rule="evenodd" stroke="#ffffff" stroke-width="1.0000000px" stroke-opacity="0.794595" id="path2564" d="m318.539063,79.196655l-26.631134,0.722107l26.631134,-0.722107z"/>
    <path fill="none" fill-opacity="0.75" fill-rule="evenodd" stroke="#ffffff" stroke-width="1.0000000px" stroke-opacity="0.794595" id="path2562" d="m318.977448,97.449249l-27.947754,0.896027l27.947754,-0.896027z"/>
    <path fill="none" fill-opacity="0.75" fill-rule="evenodd" stroke="#ffffff" stroke-width="1.0000000px" stroke-opacity="0.794595" id="path2560" d="m319.087219,115.292191l-28.715912,0.315277l28.715912,-0.315277z"/>
    <path fill="none" fill-opacity="0.75" fill-rule="evenodd" stroke="#ffffff" stroke-width="1.0000000px" stroke-opacity="0.794595" id="path2558" d="m318.757629,132.131516l-29.319489,0.527054l29.319489,-0.527054z"/>
    <path fill="none" fill-opacity="0.75" fill-rule="evenodd" stroke="#ffffff" stroke-width="1.0000000px" stroke-opacity="0.794595" id="path2556" d="m318.757629,148.057098l-29.593781,0.267395l29.593781,-0.267395z"/>
    <path fill="none" fill-opacity="0.75" fill-rule="evenodd" stroke="#ffffff" stroke-width="1.0000000px" stroke-opacity="0.794595" id="path2554" d="m318.538208,163.040237l-29.703552,-0.326828l29.703552,0.326828z"/>
    <path fill="none" fill-opacity="0.75" fill-rule="evenodd" stroke="#ffffff" stroke-width="1.0000000px" stroke-opacity="0.794595" id="path2552" d="m318.8125,177.706696l-31.623657,-0.185425l31.623657,0.185425z"/>
    <path fill="none" fill-opacity="0.75" fill-rule="evenodd" stroke="#ffffff" stroke-width="1.0000000px" stroke-opacity="0.794595" id="path2550" d="m318.646973,191.075287l-31.843079,-0.687073l31.843079,0.687073z"/>
    <path fill="none" fill-opacity="0.75" fill-rule="evenodd" stroke="#ffffff" stroke-width="1.0000000px" stroke-opacity="0.794595" id="path2548" d="m318.92099,202.9487l-31.843079,-0.393158l31.843079,0.393158z"/>
    <path fill="none" fill-opacity="0.75" fill-rule="evenodd" stroke="#ffffff" stroke-width="1.0000000px" stroke-opacity="0.794595" id="path2546" d="m318.646667,215.037201l-31.843048,-0.686951l31.843048,0.686951z"/>
    <path fill="none" fill-opacity="0.75" fill-rule="evenodd" stroke="#ffffff" stroke-width="1.0000000px" stroke-opacity="0.794595" id="path2544" d="m318.92099,227.400421l-32.391663,-1.20636l32.391663,1.20636z"/>
    <path fill="none" fill-opacity="0.75" fill-rule="evenodd" stroke="#ffffff" stroke-width="1.0000000px" stroke-opacity="0.794595" id="path2542" d="m318.372375,237.661469l-32.117401,-1.191559l32.117401,1.191559z"/>
    <path fill="none" fill-opacity="0.75" fill-rule="evenodd" stroke="#ffffff" stroke-width="1.0000000px" stroke-opacity="0.794595" id="path2540" d="m318.042847,247.395264l-32.665924,-0.976196l32.665924,0.976196z"/>
    <path fill="none" fill-opacity="0.75" fill-rule="evenodd" stroke="#ffffff" stroke-width="1.0000000px" stroke-opacity="0.794595" id="path2538" d="m318.042847,256.852692l-32.940216,-0.990997l32.940216,0.990997z"/>
    <path fill="none" fill-opacity="0.75" fill-rule="evenodd" stroke="#ffffff" stroke-width="1.0000000px" stroke-opacity="0.794595" id="path2536" d="m317.164795,266.507446l-31.568787,-0.917053l31.568787,0.917053z"/>
    <path fill="none" fill-opacity="0.75" fill-rule="evenodd" stroke="#ffffff" stroke-width="1.0000000px" stroke-opacity="0.794595" id="path2534" d="m316.835297,275.163208l-31.843018,-0.687012l31.843018,0.687012z"/>
    <path fill="none" fill-opacity="0.75" fill-rule="evenodd" stroke="#ffffff" stroke-width="1.0000000px" stroke-opacity="0.794595" id="path2532" d="m316.615875,282.942902l-31.623596,-1.753357l31.623596,1.753357z"/>
    <path fill="none" fill-opacity="0.75" fill-rule="evenodd" stroke="#ffffff" stroke-width="1.0000000px" stroke-opacity="0.794595" id="path2530" d="m316.890167,290.112122l-31.897888,-1.523254l31.897888,1.523254z"/>
   </g>
   <path fill="none" fill-opacity="0.75" fill-rule="evenodd" stroke="#000000" stroke-width="1.603473" stroke-miterlimit="4" id="path2641" d="m297.678589,12.904587l-17.454926,411.422867l17.454926,-411.422867zm2.689606,1.176064l-13.447968,410.246803l13.447968,-410.246803zm2.689575,0l-9.386139,410.246803l9.386139,-410.246803zm4.061859,0l-6.751434,410.246803l6.751434,-410.246803zm5.32428,0l-5.32428,407.84568l5.32428,-407.84568zm5.379211,0l-4.006958,410.246803l4.006958,-410.246803z"/>
   <path fill="url(#linearGradient2848)" fill-rule="nonzero" stroke="#000000" stroke-width="0.625" stroke-linecap="round" stroke-linejoin="round" stroke-miterlimit="4" stroke-dashoffset="0" id="path2654" d="m356.308533,-56.405472c0,3.373772 -1.976532,6.108753 -4.414673,6.108753c-2.438141,0 -4.414673,-2.734982 -4.414673,-6.108753c0,-3.373798 1.976532,-6.10878 4.414673,-6.10878c2.438141,0 4.414673,2.734982 4.414673,6.10878z"/>
   <path fill="url(#linearGradient2850)" fill-rule="nonzero" stroke="#000000" stroke-width="0.625" stroke-linecap="round" stroke-linejoin="round" stroke-miterlimit="4" stroke-dashoffset="0" id="path2656" d="m353.21817,-35.714478c0.001648,3.484367 -1.876495,6.310265 -4.193909,6.310265c-2.317383,0 -4.195587,-2.825897 -4.193939,-6.310265c-0.001648,-3.484333 1.876556,-6.310287 4.193939,-6.310287c2.317413,0 4.195557,2.825954 4.193909,6.310287z"/>
   <path fill="url(#linearGradient2852)" fill-rule="nonzero" stroke="#000000" stroke-width="0.625" stroke-linecap="round" stroke-linejoin="round" stroke-miterlimit="4" stroke-dashoffset="0" id="path2658" d="m350.569427,-14.432323c0,3.482597 -1.778809,6.305832 -3.973175,6.305832c-2.194366,0 -3.973206,-2.823235 -3.973206,-6.305832c0,-3.482597 1.778839,-6.305832 3.973206,-6.305832c2.194366,0 3.973175,2.823235 3.973175,6.305832z"/>
   <path fill="url(#linearGradient2854)" fill-rule="nonzero" stroke="#0b0c09" stroke-width="0.25" stroke-linecap="round" stroke-linejoin="round" stroke-miterlimit="4" stroke-dashoffset="0" stroke-opacity="0.4" id="path2660" d="m295.827667,-48.129063c0.001678,2.504375 -1.876526,4.535534 -4.193909,4.535534c-2.317444,0 -4.195587,-2.031158 -4.193909,-4.535534c-0.001678,-2.504402 1.876465,-4.53553 4.193909,-4.53553c2.317383,0 4.195587,2.031128 4.193909,4.53553z"/>
   <path fill="url(#linearGradient2856)" fill-rule="nonzero" stroke="#0b0c09" stroke-width="0.25" stroke-linecap="round" stroke-linejoin="round" stroke-miterlimit="4" stroke-dashoffset="0" stroke-opacity="0.4" id="path2662" d="m293.178833,-29.408642c0.001862,1.832087 -0.754944,3.526022 -1.985046,4.442739c-1.230072,0.916746 -2.746185,0.916746 -3.976288,0c-1.230103,-0.916718 -1.986908,-2.610653 -1.985046,-4.442739c-0.001862,-1.832088 0.754944,-3.525997 1.985046,-4.442738c1.230103,-0.916748 2.746216,-0.916748 3.976288,0c1.230103,0.91674 1.986908,2.610649 1.985046,4.442738z"/>
   <path fill="url(#linearGradient2858)" fill-rule="nonzero" stroke="#0b0c09" stroke-width="0.25" stroke-linecap="round" stroke-linejoin="round" stroke-miterlimit="4" stroke-dashoffset="0" stroke-opacity="0.4" id="path2664" d="m289.205719,-9.30883c0,2.611942 -1.680023,4.729389 -3.752441,4.729389c-2.072388,0 -3.752472,-2.117447 -3.752472,-4.729389c0,-2.611969 1.680084,-4.729389 3.752472,-4.729389c2.072418,0 3.752441,2.11742 3.752441,4.729389z"/>
   <path fill="url(#linearGradient2860)" fill-rule="nonzero" stroke="#0b0c09" stroke-width="0.25" stroke-linecap="round" stroke-linejoin="round" stroke-miterlimit="4" stroke-dashoffset="0" stroke-opacity="0.4" id="path2712" d="m329.37912,-16.205818c0.002136,1.198345 -0.586456,2.306675 -1.543427,2.906578c-0.957031,0.599846 -2.136719,0.599846 -3.09375,0c-0.95697,-0.599903 -1.545471,-1.708233 -1.543396,-2.906578c-0.002075,-1.198349 0.586426,-2.306709 1.543396,-2.906609c0.957031,-0.59985 2.136719,-0.59985 3.09375,0c0.95697,0.599899 1.545563,1.70826 1.543427,2.906609z"/>
   <path fill="url(#linearGradient2862)" fill-rule="nonzero" stroke="#0b0c09" stroke-width="0.25" stroke-linecap="round" stroke-linejoin="round" stroke-miterlimit="4" stroke-dashoffset="0" stroke-opacity="0.4" id="path2714" d="m330.262085,-37.487972c0.002136,1.198349 -0.586426,2.306679 -1.543396,2.906582c-0.957062,0.599846 -2.136749,0.599846 -3.093781,0c-0.95697,-0.599903 -1.545471,-1.708233 -1.543396,-2.906582c-0.002075,-1.198376 0.586426,-2.306705 1.543396,-2.906609c0.957031,-0.599846 2.136719,-0.599846 3.093781,0c0.95697,0.599903 1.545532,1.708233 1.543396,2.906609z"/>
   <path fill="url(#linearGradient2864)" fill-rule="nonzero" stroke="#0b0c09" stroke-width="0.25" stroke-linecap="round" stroke-linejoin="round" stroke-miterlimit="4" stroke-dashoffset="0" stroke-opacity="0.4" id="path2717" d="m333.793793,-59.16431c0.002106,1.198376 -0.586456,2.306705 -1.543427,2.906609c-0.957031,0.599846 -2.136749,0.599846 -3.09375,0c-0.957001,-0.599903 -1.545502,-1.708233 -1.543396,-2.906609c-0.002106,-1.198349 0.586395,-2.306679 1.543396,-2.906582c0.957001,-0.599846 2.136719,-0.599846 3.09375,0c0.95697,0.599903 1.545532,1.708233 1.543427,2.906582z"/>
   <path fill="url(#linearGradient2866)" fill-rule="nonzero" stroke="#0b0c09" stroke-width="0.25" stroke-linecap="round" stroke-linejoin="round" stroke-miterlimit="4" stroke-dashoffset="0" stroke-opacity="0.4" id="path2719" d="m300.242432,-13.447037c0.002106,1.198349 -0.586426,2.306679 -1.543427,2.906582c-0.957031,0.599846 -2.136719,0.599846 -3.09375,0c-0.95697,-0.599903 -1.545471,-1.708233 -1.543396,-2.906582c-0.002075,-1.198376 0.586426,-2.306705 1.543396,-2.906609c0.957031,-0.599846 2.136719,-0.599846 3.09375,0c0.957001,0.599903 1.545532,1.708233 1.543427,2.906609z"/>
   <path fill="url(#linearGradient2868)" fill-rule="nonzero" stroke="#0b0c09" stroke-width="0.25" stroke-linecap="round" stroke-linejoin="round" stroke-miterlimit="4" stroke-dashoffset="0" stroke-opacity="0.4" id="path2721" d="m303.332581,-35.91153c0.002167,1.19838 -0.586395,2.306709 -1.543396,2.906609c-0.957031,0.59985 -2.136749,0.59985 -3.093781,0c-0.95694,-0.599899 -1.545471,-1.708229 -1.543396,-2.906609c-0.002075,-1.198345 0.586456,-2.306675 1.543396,-2.906578c0.957031,-0.599846 2.136749,-0.599846 3.093781,0c0.957001,0.599903 1.545563,1.708233 1.543396,2.906578z"/>
   <path fill="url(#linearGradient2870)" fill-rule="nonzero" stroke="#0b0c09" stroke-width="0.25" stroke-linecap="round" stroke-linejoin="round" stroke-miterlimit="4" stroke-dashoffset="0" stroke-opacity="0.4" id="path2723" d="m304.656921,-55.22316c0.002167,1.198349 -0.586395,2.306705 -1.543365,2.906582c-0.957031,0.599846 -2.136749,0.599846 -3.093781,0c-0.95697,-0.599876 -1.545471,-1.708233 -1.543396,-2.906582c-0.002075,-1.198345 0.586426,-2.306675 1.543396,-2.906578c0.957031,-0.59985 2.136749,-0.59985 3.093781,0c0.95697,0.599903 1.545532,1.708233 1.543365,2.906578z"/>
  </g>
 </g>
</svg>